<svg xmlns="http://www.w3.org/2000/svg" xmlns:xlink="http://www.w3.org/1999/xlink" width="14.6" height="18.3" fill="#fff" style="width:12px;height:12px"><defs><symbol id="a" viewBox="0 0 14.6 18.3"><path d="M7.3 0A7.3 7.3 0 0 0 0 7.3a7 7 0 0 0 .1 1.4v.2a7.2 7.2 0 0 0 .6 1.5A20.5 20.5 0 0 0 7 18.1a.5.5 0 0 0 .7 0 20.6 20.6 0 0 0 6.3-7.7 7 7 0 0 0 .5-1.5 4 4 0 0 0 0-.2 7.5 7.5 0 0 0 .1-1.4A7.3 7.3 0 0 0 7.3 0m6.2 8.5v.2A6 6 0 0 1 13 10a19.1 19.1 0 0 1-5.7 7 19.1 19.1 0 0 1-5.7-7 6.5 6.5 0 0 1-.4-1.3v-.2a6.3 6.3 0 1 1 12.3 0"/><path d="M7.3 2.8A4.6 4.6 0 1 0 12 7.4a4.7 4.7 0 0 0-4.7-4.6m0 8.3A3.6 3.6 0 1 1 11 7.4a3.6 3.6 0 0 1-3.7 3.7"/></symbol></defs><use xlink:href="#a" href="#a"/></svg>