<svg xmlns="http://www.w3.org/2000/svg" width="1024" height="768" fill="none" style="height:57px;width:auto"><path fill="#FFF" d="M208.02 389.9 195.84 300l-41.4 90.15h-12.7l-41.38-90.12-12.01 89.86H44.77l23.61-156.1h42.94l36.76 84.94 37-84.94h42.94l23.39 156.1h-43.39zM397.219 269.36v120.42h-32.06l-3.55-8.52c-9.86 7.99-22.35 12.59-36.33 12.59-36.82 0-63.14-26.86-63.14-64.29s26.32-63.84 63.14-63.84c14.18 0 26.85 4.74 36.79 12.94l4.24-9.31h30.91zm-39.45 60.3c0-15.63-11.42-27.37-26.96-27.37s-26.96 11.74-26.96 27.37 11.42 27.46 26.96 27.46 26.96-11.74 26.96-27.46M501.779 268.91v37.96h-16.1c-14.68 0-20.83 6.44-20.83 21.8v61.23h-41.48V269.48h27.79l6.47 13.37c8.49-9.82 18.84-13.94 33.17-13.94h10.99zM590.9 389.9l-30.16-50.92v50.92h-41.48V226h41.48v90.66l28.69-47.18H636l-37.53 57.39 41.33 63.02h-48.9z"/><path fill="#FFF" d="M769.1 328.56c0 3.63-.32 7.26-.86 10.98h-89.41c2.71 13.81 11.49 20.96 24.58 20.96 9.69 0 17.78-4.24 21.77-11.29h41.27c-8.47 27.48-32.83 44.65-63.05 44.65-37.57 0-65.41-27.46-65.41-64.25s27.61-64.06 65.41-64.06 65.69 27.69 65.69 63.01zm-89.54-11.99h48.68c-3.64-12.03-12.31-18.53-24.83-18.53s-20.49 6.57-23.85 18.53M867.39 353.57v36.33h-28.54c-26.63 0-42.82-16.28-42.82-43.04v-45.44h-22.04v-9.7l53.95-57.45h8.52v35.21h30.25v31.94H837.5v38.32c0 8.62 5.2 13.83 13.95 13.83h15.94M932.12 323.5c11.68 0 21.88-7.9 24.8-19.21l24.07-92.28h-43.98L907.98 323.5zM922.469 393.48c14.96 0 27.1-12.15 27.1-27.11s-12.14-27.1-27.1-27.1-27.11 12.14-27.11 27.1 12.14 27.11 27.11 27.11M909.171 214.24h.05l3.37 9.38h1.49l3.37-9.38h.06v9.38h2.52V212h-4.08l-2.62 6.87-2.61-6.87h-4.08v11.62h2.53zM898.899 223.62h2.79v-9.38h3.54V212h-9.87v2.24h3.54z"/><mask id="a" width="397" height="144" x="43" y="413" fill="#FFF" maskUnits="userSpaceOnUse" style="mask-type:luminance"><path d="M440 413.09H43v143h397z"/></mask><g fill="#FFF" mask="url(#a)"><mask id="b" width="397" height="144" x="42" y="413" fill="#FFF" maskUnits="userSpaceOnUse" style="mask-type:luminance"><path d="M439 413.09H42v143h397z"/></mask><g mask="url(#b)"><path d="M191.029 413.1H76.799L42.78 554.74h98.31c9.35 0 17.48-6.41 19.66-15.5zM236.13 473.42h20.88l-35.78 65.61c-1.78 3.33-3.57 5.88-5.6 8.18-1.91 2.18-3.95 3.97-6.24 5.24-2.29 1.28-4.71 2.05-7.39 2.69-2.55.51-5.48.9-8.79.9-2.16 0-3.82-.13-5.35-.38-1.4-.38-2.55-.77-3.44-1.02l1.15-17.01c1.02.51 2.16 1.02 3.44 1.54 1.4.38 2.93.64 4.71.64 2.55 0 4.58-.39 6.11-1.28 1.66-1.02 3.06-2.43 4.07-4.35l1.27-2.18-14.39-58.57h22.92l3.56 19.05c.51 2.43.89 4.99 1.15 7.8.38 2.81.64 5.88.89 9.21 1.27-3.32 2.42-6.27 3.69-9.08s2.55-5.5 3.69-7.93l9.42-19.05zM299.429 471.89c3.56 0 6.62.51 9.42 1.92 2.93 1.28 5.35 3.07 7.39 5.63 2.16 2.43 3.69 5.24 4.84 8.7 1.27 3.32 1.78 7.16 1.78 11.26 0 4.99-.64 9.46-2.29 13.81-1.53 4.22-3.69 7.8-6.49 10.87-2.67 3.07-5.86 5.37-9.55 7.16-3.57 1.66-7.51 2.56-11.72 2.56-3.57 0-6.62-.64-9.68-2.05-2.93-1.53-5.35-3.58-7.39-6.39l-5.22 29.29h-19.74l11.08-63.05 1.66-18.03 18.21-1.28-.51 7.42c2.55-2.43 5.22-4.22 8.28-5.63 3.06-1.53 6.37-2.17 9.93-2.17zm-9.05 43.99c1.91 0 3.44-.38 4.97-1.15 1.53-.9 2.8-1.92 3.82-3.2a14.9 14.9 0 0 0 2.29-4.73c.51-1.79.76-3.71.76-5.5 0-3.71-.76-6.39-2.8-8.44-1.91-2.05-4.46-3.07-7.64-3.07-2.04 0-3.82.38-5.35 1.28-1.53.77-2.67 1.79-3.69 3.32-.89 1.41-1.53 3.07-2.04 4.86a19.5 19.5 0 0 0-.76 5.37c0 3.58 1.02 6.27 2.93 8.31 2.04 1.92 4.46 2.94 7.51 2.94zM388.44 495.67c0 .77.13 1.79-.13 2.94-.13 1.02-.25 2.05-.51 3.32-.13 1.15-.38 2.18-.64 3.33-.25 1.02-.38 1.92-.64 2.69h-36.29c.25 1.28.64 2.56 1.15 3.84.64 1.15 1.53 2.05 2.55 3.07 1.15.9 2.42 1.66 4.2 2.18 1.78.51 3.95.77 6.37.77 4.33 0 8.02-.51 10.95-1.54 3.06-1.15 5.6-2.3 7.77-3.58l-2.67 16.88c-2.55 1.28-5.6 2.3-9.42 3.07s-7.51 1.15-11.08 1.15c-5.35 0-9.93-.64-13.75-2.17s-6.88-3.58-9.42-6.14c-2.55-2.56-4.33-5.5-5.6-8.95-1.15-3.58-1.78-7.29-1.78-11.13 0-5.11.89-9.59 2.55-13.68 1.78-4.09 3.95-7.54 6.88-10.49 3.06-3.07 6.37-5.37 10.31-6.9 4.07-1.66 8.28-2.43 12.86-2.43 4.33 0 7.9.38 11.21 1.66 3.31 1.15 5.98 2.69 8.28 4.86 2.29 2.05 3.95 4.6 5.09 7.55 1.27 2.81 1.78 6.14 1.78 9.72zm-26.36-7.92c-2.8 0-4.97.64-6.75 2.3-1.78 1.53-3.06 3.71-4.07 6.27h18.59c.13-2.56-.51-4.6-2.04-6.14-1.4-1.66-3.31-2.43-5.73-2.43M435.05 471.89h1.91c.38 0 .89 0 1.65.25l-4.07 18.93c-.51-.26-1.02-.26-1.65-.26-.51-.13-1.27-.13-2.29-.13-3.31 0-6.11 1.02-8.91 3.32-2.67 2.18-4.58 5.76-5.86 10.62l-4.84 27.62h-19.74l7.13-40.54 1.66-18.16 17.95-1.28-.64 10.49c1.78-3.33 4.2-5.76 7.39-7.8 3.31-2.05 6.75-3.07 10.31-3.07z"/><path fill="#009DE6" d="m125.19 514.27-4.86 20.23h20.77l4.86-20.23zM73.27 514.27l-4.86 20.23h20.77l4.86-20.23zM165.401 433.33l-10.86 45.22a20.21 20.21 0 0 1-19.65 15.49h-56.76l14.58-60.7h20.77l-9.72 40.47h31.15l9.72-40.47h20.77z"/></g></g></svg>