<svg xmlns="http://www.w3.org/2000/svg" xmlns:xlink="http://www.w3.org/1999/xlink" width="13" height="13" fill="#7e7e7e" style="width:13px;height:13px"><defs><symbol id="a" viewBox="0 0 13 13"><path fill-rule="evenodd" d="m12.823 11.24-2.531-2.532a.6.6 0 0 0-.432-.178h-.414A5.28 5.28 0 0 0 5.282 0a5.28 5.28 0 1 0 0 10.561 5.26 5.26 0 0 0 3.25-1.117v.414c0 .163.063.318.178.432l2.531 2.531a.607.607 0 0 0 .861 0l.719-.718a.61.61 0 0 0 .002-.864zM5.282 8.53a3.25 3.25 0 0 1-3.25-3.25 3.25 3.25 0 0 1 3.25-3.249 3.25 3.25 0 0 1 3.25 3.25 3.25 3.25 0 0 1-3.25 3.25z"/></symbol></defs><use xlink:href="#a" href="#a"/></svg>