<svg xmlns="http://www.w3.org/2000/svg" xmlns:xlink="http://www.w3.org/1999/xlink" width="32" height="32" fill="#fff" style="width:18px;height:18px"><defs><symbol id="a" viewBox="0 0 32 32"><path d="M28.395 7.573C25.727 3.014 20.854 0 15.278 0h-.048.002-.107C6.771 0 0 6.772 0 15.125v.113-.006.064c0 8.365 6.781 15.147 15.147 15.147h.09-.005.064c8.365 0 15.147-6.781 15.147-15.147v-.068.003c0-2.773-.683-5.333-2.048-7.659zM18.24 17.579a.76.76 0 0 1-.213.555.75.75 0 0 1-.523.214l-.033-.001h.002-7.68a.8.8 0 0 1-.555-.213.75.75 0 0 1-.214-.523l.001-.033v.002-1.536c0-.235.064-.427.213-.555.149-.149.32-.213.555-.213h5.376V6.785c0-.213.085-.405.213-.533a.76.76 0 0 1 .555-.213h1.536c.213 0 .427.064.555.213.149.128.213.32.213.533z"/></symbol></defs><use xlink:href="#a" href="#a"/></svg>