<svg xmlns="http://www.w3.org/2000/svg" xmlns:xlink="http://www.w3.org/1999/xlink" width="32" height="32" fill="#fff" class="ml-1" style="width:18px;height:18px"><defs><symbol id="a" viewBox="0 0 32 32"><path d="M27.313 20.688a15.9 15.9 0 0 0-6.083-3.817 9.24 9.24 0 0 0 3.602-10.367 9.25 9.25 0 0 0-8.836-6.508 9.25 9.25 0 0 0-8.832 6.508 9.24 9.24 0 0 0 3.602 10.367A16.03 16.03 0 0 0-.004 32h2.5c0-7.457 6.047-13.5 13.5-13.5 7.457 0 13.5 6.043 13.5 13.5h2.5a15.88 15.88 0 0 0-4.683-11.313zM15.995 16a6.75 6.75 0 0 1-6.75-6.75 6.75 6.75 0 0 1 6.75-6.75 6.75 6.75 0 1 1 0 13.5m0 0"/></symbol></defs><use xlink:href="#a" href="#a"/></svg>